#!OML:ASF X:\für Bonn\!DataBase\2005_08_12_Daniel\c3d\Daniel.ASF
:FULLY-SPECIFIED
:DEGREES
170
root 19.0282 3.96879 -0.297658 -1270.1 225.559 131.084
lowerback 68.4195 -2.69369 20.8731
upperback 10.9429 8.83199 -3.75383
thorax -5.48434 4.08563 -16.1859
lowerneck 10.1941 10.9768 -1.49966
upperneck 13.0018 14.6791 -8.48853
head 3.17677 6.84329 -2.57499
rclavicle -1.11319e-014 -1.08139e-013
rhumerus -311.625 56.4351 294.148
rradius 32.2605
rwrist 16.032
rhand 2.49186 733.843
rfingers 7.12502
rthumb 27.9749 705.907
lclavicle -1.11319e-014 -1.08139e-013
lhumerus -369.713 22.7381 -284.078
lradius 19.2538
lwrist -16.5436
lhand -72.2856 -625.551
lfingers 7.12502
lthumb -43.7475 -430.473
rfemur -96.7469 -51.2927 46.7723
rtibia 127.89
rfoot 409.329 34.2287
rtoes 18.0416
lfemur -54.7393 43.4835 -42.8968
ltibia 134.223
lfoot 9.14289 -27.9978
ltoes -0.587838
171
root 19.0931 3.85801 -0.233369 -1269.99 227.005 130.386
lowerback 68.3704 -2.77708 21.0897
upperback 10.9009 8.87658 -3.66478
thorax -5.4871 4.08581 -16.1708
lowerneck 9.93787 11.2075 -1.36057
upperneck 12.9996 15.0195 -8.53587
head 3.25435 7.00972 -2.59458
rclavicle -5.40694e-014 1.59028e-014
rhumerus -311.127 57.0541 294.912
rradius 33.0435
rwrist 15.4956
rhand 1.65849 734.054
rfingers 7.12502
rthumb 27.1779 705.992
lclavicle -5.40694e-014 1.59028e-014
lhumerus -371.239 22.1638 -284.057
lradius 19.5805
lwrist -15.0815
lhand -72.2405 -623.208
lfingers 7.12502
lthumb -43.7055 -432.8
rfemur -96.4366 -50.9062 46.5232
rtibia 127.762
rfoot 409.461 33.3191
rtoes 18.0427
lfemur -55.283 43.4421 -43.8882
ltibia 134.039
lfoot 8.90813 -27.2534
ltoes -0.222757
172
root 19.1548 3.74705 -0.170115 -1269.94 228.417 129.747
lowerback 68.341 -2.85945 21.2788
upperback 10.8729 8.90551 -3.57614
thorax -5.48233 4.08031 -16.1385
lowerneck 9.68113 11.4314 -1.2872
upperneck 13.0328 15.3429 -8.51859
head 3.33227 7.16441 -2.58044
rclavicle 7.79236e-014 7.31528e-014
rhumerus -310.725 57.5823 295.624
rradius 33.8818
rwrist 15.0436
rhand 0.814759 734.213
rfingers 7.12502
rthumb 26.3705 706.027
lclavicle 7.79236e-014 7.31528e-014
lhumerus -372.757 21.393 -283.966
lradius 19.9828
lwrist -13.4798
lhand -72.2604 -621.137
lfingers 7.12502
lthumb -43.7241 -434.878
rfemur -96.1804 -50.5912 46.2537
rtibia 127.663
rfoot 409.654 32.4792
rtoes 17.9965
lfemur -55.8558 43.4085 -44.9513
ltibia 133.873
lfoot 8.63326 -26.3086
ltoes 0.0899389
173
root 19.2123 3.63583 -0.108005 -1269.88 229.789 129.113
lowerback 68.2927 -2.93888 21.4417
upperback 10.8579 8.91335 -3.49044
thorax -5.47371 4.06625 -16.0927
lowerneck 9.4445 11.6543 -1.17878
upperneck 13.0608 15.6667 -8.51155
head 3.40962 7.32139 -2.57553
rclavicle 1.74931e-014 2.54444e-014
rhumerus -310.213 58.0489 296.401
rradius 34.7183
rwrist 14.5991
rhand 0.0200456 734.229
rfingers 7.12502
rthumb 25.6096 705.931
lclavicle 1.74931e-014 2.54444e-014
lhumerus -374.255 20.5207 -283.834
lradius 20.4595
lwrist -11.7393
lhand -72.2526 -618.959
lfingers 7.12502
lthumb -43.7168 -437.053
rfemur -96.0021 -50.3278 46.0495
rtibia 127.586
rfoot 409.903 31.6719
rtoes 17.8605
lfemur -56.4515 43.4058 -46.0004
ltibia 133.714
lfoot 8.43349 -25.2981
ltoes 0.579823
174
root 19.267 3.52677 -0.046514 -1269.86 231.154 128.53
lowerback 68.2316 -2.97844 21.5532
upperback 10.8731 8.92508 -3.38114
thorax -5.44311 4.05456 -16.0006
lowerneck 9.3051 11.8575 -1.0732
upperneck 13.0417 15.956 -8.53273
head 3.45495 7.46531 -2.58627
rclavicle 4.45278e-014 -3.81667e-014
rhumerus -309.81 58.4112 297.103
rradius 35.5903
rwrist 14.2295
rhand -0.629347 734.27
rfingers 7.12502
rthumb 24.9874 705.884
lclavicle 4.45278e-014 -3.81667e-014
lhumerus -375.75 19.5819 -283.628
lradius 21.0118
lwrist -9.93167
lhand -72.2189 -617.197
lfingers 7.12502
lthumb -43.6853 -438.803
rfemur -95.8211 -50.0457 45.8149
rtibia 127.488
rfoot 410.22 30.7506
rtoes 17.7584
lfemur -57.0232 43.5079 -47.0484
ltibia 133.543
lfoot 8.16654 -24.2757
ltoes 0.914327
175
root 19.3176 3.41727 0.0147133 -1269.86 232.456 127.991
lowerback 68.1728 -3.04823 21.6604
upperback 10.8676 8.907 -3.27698
thorax -5.44432 4.0257 -15.9035
lowerneck 9.26985 12.0563 -0.956597
upperneck 13.0575 16.232 -8.5227
head 3.4925 7.60433 -2.59408
rclavicle 1.59028e-014 3.81667e-014
rhumerus -309.558 58.7002 297.649
rradius 36.4947
rwrist 13.9365
rhand -1.11679 734.305
rfingers 7.12502
rthumb 24.5203 705.855
lclavicle 1.59028e-014 3.81667e-014
lhumerus -377.292 18.5629 -283.389
lradius 21.6002
lwrist -8.06245
lhand -72.1796 -615.219
lfingers 7.12502
lthumb -43.6486 -440.768
rfemur -95.7062 -49.8636 45.5998
rtibia 127.392
rfoot 410.638 29.8157
rtoes 17.5637
lfemur -57.6926 43.4952 -48.2231
ltibia 133.382
lfoot 7.84438 -23.1532
ltoes 0.990159
176
root 19.3646 3.31056 0.0752088 -1269.89 233.745 127.471
lowerback 68.1058 -3.10625 21.7527
upperback 10.8684 8.89001 -3.16895
thorax -5.44176 3.99787 -15.7973
lowerneck 9.35722 12.2381 -0.807909
upperneck 13.0426 16.4805 -8.55398
head 3.50467 7.73456 -2.62956
rclavicle 6.36111e-015 -6.99722e-014
rhumerus -309.213 58.9424 298.384
rradius 37.5245
rwrist 13.533
rhand -1.41526 734.319
rfingers 7.12502
rthumb 24.2341 705.83
lclavicle 6.36111e-015 -6.99722e-014
lhumerus -378.868 17.5783 -283.103
lradius 22.2875
lwrist -6.22714
lhand -72.1775 -613.48
lfingers 7.12502
lthumb -43.6466 -442.506
rfemur -95.594 -49.707 45.3873
rtibia 127.299
rfoot 411.091 28.8739
rtoes 17.5841
lfemur -58.3637 43.4854 -49.3984
ltibia 133.212
lfoot 7.43703 -22.0177
ltoes 0.966153
177
root 19.4092 3.20784 0.135043 -1269.85 234.992 126.872
lowerback 68.0121 -3.19698 21.8648
upperback 10.9068 8.83871 -3.04736
thorax -5.40197 3.95914 -15.6663
lowerneck 9.43183 12.4312 -0.760793
upperneck 12.9834 16.7305 -8.55423
head 3.49046 7.86346 -2.63897
rclavicle -2.06736e-014 3.18055e-014
rhumerus -308.382 59.192 299.744
rradius 38.739
rwrist 12.8617
rhand -1.4917 734.338
rfingers 7.12502
rthumb 24.1608 705.84
lclavicle -2.06736e-014 3.18055e-014
lhumerus -380.385 16.6296 -282.749
lradius 23.0233
lwrist -4.34081
lhand -72.1211 -611.591
lfingers 7.12502
lthumb -43.594 -444.377
rfemur -95.4487 -49.5808 45.222
rtibia 127.183
rfoot 411.499 28.0595
rtoes 17.7399
lfemur -59.0232 43.5033 -50.475
ltibia 133.065
lfoot 7.00457 -20.9283
ltoes 0.713793
178
root 19.4497 3.10778 0.192708 -1269.79 236.197 126.31
lowerback 67.8252 -3.29464 21.9838
upperback 11.0152 8.7457 -2.96489
thorax -5.28849 3.9203 -15.5705
lowerneck 9.46419 12.6032 -0.640294
upperneck 12.8935 16.962 -8.57489
head 3.48069 7.98718 -2.66451
rclavicle -1.1609e-013 7.95139e-014
rhumerus -307.496 59.2767 301.145
rradius 40.0503
rwrist 12.1621
rhand -1.38854 734.46
rfingers 7.12502
rthumb 24.2597 705.975
lclavicle -1.1609e-013 7.95139e-014
lhumerus -381.753 16.014 -282.433
lradius 23.6851
lwrist -2.80131
lhand -72.0714 -610.161
lfingers 7.12502
lthumb -43.5476 -445.789
rfemur -95.3522 -49.4266 45.0876
rtibia 127.066
rfoot 411.946 27.186
rtoes 18.1908
lfemur -59.7694 43.4408 -51.6041
ltibia 132.935
lfoot 6.58577 -19.8034
ltoes 0.534053
179
root 19.4897 3.01195 0.248925 -1269.71 237.375 125.66
lowerback 67.6669 -3.44039 22.1373
upperback 11.1423 8.61701 -2.91268
thorax -5.14975 3.8721 -15.5063
lowerneck 9.49179 12.7783 -0.483354
upperneck 12.77 17.1987 -8.59744
head 3.46399 8.11667 -2.69648
rclavicle 1.38354e-013 -1.04958e-013
rhumerus -306.869 59.1931 302.136
rradius 41.3021
rwrist 11.612
rhand -1.14902 734.785
rfingers 7.12502
rthumb 24.4894 706.331
lclavicle 1.38354e-013 -1.04958e-013
lhumerus -383.031 15.6166 -282.155
lradius 24.3275
lwrist -1.45146
lhand -71.9985 -608.755
lfingers 7.12502
lthumb -43.4795 -447.17
rfemur -95.1477 -49.3347 44.9645
rtibia 126.909
rfoot 412.383 26.4121
rtoes 18.5539
lfemur -60.4012 43.4953 -52.5539
ltibia 132.796
lfoot 6.17619 -18.7505
ltoes 0.261563
180
root 19.5281 2.91932 0.303362 -1269.53 238.502 124.965
lowerback 67.4598 -3.5765 22.2873
upperback 11.2714 8.48953 -2.84015
thorax -5.01262 3.82256 -15.4199
lowerneck 9.53503 12.9302 -0.286807
upperneck 12.6731 17.4141 -8.67534
head 3.464 8.23534 -2.75358
rclavicle 8.11041e-014 2.22639e-014
rhumerus -306.414 59.0244 302.986
rradius 42.5665
rwrist 11.0897
rhand -0.852204 735.251
rfingers 7.12502
rthumb 24.7739 706.836
lclavicle 8.11041e-014 2.22639e-014
lhumerus -384.283 15.3671 -281.857
lradius 24.9355
lwrist -0.305646
lhand -71.9828 -607.665
lfingers 7.12502
lthumb -43.4648 -448.256
rfemur -94.9934 -49.2331 44.9212
rtibia 126.728
rfoot 412.816 25.6215
rtoes 18.8371
lfemur -61.1084 43.46 -53.4883
ltibia 132.666
lfoot 5.82111 -17.6929
ltoes 0.00251387
